<svg width="128" height="100" xmlns="http://www.w3.org/2000/svg"><path d="M27.429 63.638c0-2.133-1.576-3.87-3.52-3.87-1.944 0-3.52 1.737-3.52 3.87 0 2.134 1.576 3.87 3.52 3.87 1.944 0 3.52-1.736 3.52-3.87zm12.403-24.16c0-2.133-1.577-3.87-3.52-3.87-1.945 0-3.52 1.737-3.52 3.87 0 2.134 1.576 3.87 3.52 3.87 1.943 0 3.52-1.736 3.52-3.87zm23.44 0c0-2.133-1.576-3.87-3.52-3.87-1.944 0-3.52 1.737-3.52 3.87 0 2.134 1.576 3.87 3.52 3.87 1.944 0 3.52-1.736 3.52-3.87zm12.403 24.16c0-2.133-1.576-3.87-3.52-3.87-1.944 0-3.52 1.737-3.52 3.87 0 2.134 1.576 3.87 3.52 3.87 1.944 0 3.52-1.736 3.52-3.87zm23.44-24.16c0-2.133-1.576-3.87-3.52-3.87-1.944 0-3.52 1.737-3.52 3.87 0 2.134 1.576 3.87 3.52 3.87 1.944 0 3.52-1.736 3.52-3.87zm12.403 24.16c0-2.133-1.576-3.87-3.52-3.87-1.944 0-3.52 1.737-3.52 3.87 0 2.134 1.576 3.87 3.52 3.87 1.944 0 3.52-1.736 3.52-3.87zM64 25.924c-13.233 0-23.96 10.727-23.96 23.96 0 13.233 10.727 23.96 23.96 23.96 13.233 0 23.96-10.727 23.96-23.96 0-13.233-10.727-23.96-23.96-23.96z"/></svg>
